<?xml version="1.0" standalone="no"?>
<!DOCTYPE svg PUBLIC "-//W3C//DTD SVG 20010904//EN"
 "http://www.w3.org/TR/2001/REC-SVG-20010904/DTD/svg10.dtd">
<svg version="1.0" xmlns="http://www.w3.org/2000/svg"
 width="229.000000pt" height="280.000000pt" viewBox="0 0 229.000000 280.000000"
 preserveAspectRatio="xMidYMid meet">

<g transform="translate(0.000000,280.000000) scale(0.100000,-0.100000)"
fill="#d4af37" stroke="none">
<path d="M1689 2408 c-1 -7 -1 -56 -1 -108 l0 -95 57 -59 c98 -103 168 -227
201 -356 23 -93 16 -227 -18 -300 -24 -52 -105 -166 -113 -158 -2 2 8 35 22
73 34 93 44 268 19 365 -26 105 -135 310 -164 310 -4 0 -7 -191 -7 -424 l0
-425 23 21 c28 27 28 19 1 -34 -15 -30 -22 -62 -23 -116 0 -41 2 -76 5 -78 7
-4 124 72 169 110 103 86 187 233 216 375 49 249 -61 552 -250 686 -66 47 -67
49 -18 41 66 -10 138 -51 173 -99 l32 -42 -7 45 c-16 106 -93 215 -181 256
-54 26 -134 32 -136 12z"/>
<path d="M333 2048 c-15 -56 -17 -147 -4 -182 9 -21 5 -30 -29 -63 -58 -59
-85 -154 -85 -308 0 -66 4 -133 9 -150 7 -28 9 -24 35 55 15 47 42 113 59 146
l32 59 -2 245 c-3 217 -4 240 -15 198z"/>
<path d="M2177 1975 c-3 -33 -13 -247 -22 -475 -9 -228 -18 -428 -21 -445 -4
-26 -32 -50 -224 -185 -121 -85 -220 -161 -221 -170 -4 -71 -3 -113 2 -122 5
-7 476 361 547 427 11 10 9 92 -13 465 -14 250 -29 479 -34 509 l-7 56 -7 -60z"/>
<path d="M107 1985 c-8 -43 -47 -789 -47 -896 l0 -66 140 -116 c77 -65 142
-117 145 -117 3 0 5 27 5 60 l0 59 -89 66 -88 65 -7 97 c-3 54 -13 244 -22
423 -9 179 -19 357 -23 395 -7 67 -7 68 -14 30z"/>
<path d="M323 1443 c-26 -83 -23 -317 5 -423 l20 -75 1 278 c1 152 -1 277 -3
277 -3 0 -13 -26 -23 -57z"/>
</g>
</svg>
